<?xml version="1.0" encoding="UTF-8" standalone="no"?>
<!DOCTYPE svg PUBLIC "-//W3C//DTD SVG 1.1//EN" "http://www.w3.org/Graphics/SVG/1.1/DTD/svg11.dtd">
<svg width="100%" height="100%" viewBox="0 0 200 200" version="1.1" xmlns="http://www.w3.org/2000/svg" xmlns:xlink="http://www.w3.org/1999/xlink" xml:space="preserve" xmlns:serif="http://www.serif.com/" style="fill-rule:evenodd;clip-rule:evenodd;stroke-linejoin:round;stroke-miterlimit:2;">
    <g transform="matrix(2.17647,0,0,4.10931,-760.794,-1081.92)">
        <ellipse cx="395.5" cy="294" rx="42.5" ry="14" style="fill:rgb(251,0,48);"/>
    </g>
    <g transform="matrix(0.860465,0,0,1.12805,-230.849,-212.198)">
        <path d="M384.5,249C443.831,249 492,271.852 492,300C492,328.148 443.831,351 384.5,351C325.169,351 277,328.148 277,300C277,271.852 325.169,249 384.5,249ZM384.5,274.5C414.165,274.5 438.25,285.926 438.25,300C438.25,314.074 414.165,325.5 384.5,325.5C354.835,325.5 330.75,314.074 330.75,300C330.75,285.926 354.835,274.5 384.5,274.5Z" style="fill:rgb(251,214,95);"/>
    </g>
    <g transform="matrix(0.528571,0,0,0.599274,-98.2143,-58.3603)">
        <path d="M375,212C471.585,212 550,255.016 550,308C550,360.984 471.585,404 375,404C278.415,404 200,360.984 200,308C200,255.016 278.415,212 375,212ZM375,233.015C450.442,233.015 511.691,266.615 511.691,308C511.691,349.385 450.442,382.985 375,382.985C299.558,382.985 238.309,349.385 238.309,308C238.309,266.615 299.558,233.015 375,233.015Z" style="fill:rgb(235,235,235);"/>
    </g>
    <g transform="matrix(0.528571,0,0,0.599274,-87.5239,-47.3603)">
        <path d="M345.577,286.49C346.586,286.07 348.675,285.206 348.878,285.139C353.696,283.569 358.029,281.473 362.348,278.822C369.176,274.63 380.062,269.547 387.244,262.71C393.56,256.698 397.324,249.484 396.069,240.842C395.131,234.383 390.756,229.45 384.709,225.95C377.999,222.068 369.108,220.112 363.971,219.115C356.779,217.719 346.492,216.041 337.1,212.742C329.532,210.084 322.321,206.537 319.369,200.323C318.098,197.647 318.482,194.474 319.482,191.056C320.841,186.413 323.506,181.456 326.795,176.485C337.561,160.214 355,144.029 362.022,137.896C366.305,134.157 368.282,132.433 373.6,132.433C378.56,132.433 382.587,128.882 382.587,124.507C382.587,120.133 378.56,116.581 373.6,116.581C362.758,116.581 358.107,119.007 349.377,126.631C340.432,134.443 316.166,157.302 305.874,177.699C300.501,188.349 299.032,198.534 302.793,206.45C306.688,214.649 314.475,220.646 323.918,224.879C335.849,230.227 350.447,232.722 360.109,234.597C363.235,235.204 368.312,236.178 372.746,238.145C375.222,239.243 377.888,240.421 378.241,242.856C378.952,247.747 375.257,251.271 371.163,254.377C364.979,259.068 357.212,262.66 352.08,265.811C349.05,267.671 346.027,269.168 342.647,270.27C342.192,270.418 338.147,271.941 336.161,272.929C334.571,273.719 333.533,274.571 333.049,275.05C330.967,277.111 330.674,279.192 330.715,280.626C330.787,283.113 331.887,285.35 334.674,287.023C338.101,289.081 342.573,288.763 345.577,286.49ZM347.859,277.095C347.25,275.912 346.283,274.817 344.787,273.918C346.165,274.746 347.2,275.852 347.859,277.095Z" style="fill:rgb(187,187,187);fill-opacity:0.79;"/>
    </g>
    <g transform="matrix(0.528571,0,0,0.599274,-135.904,-47.3603)">
        <path d="M345.577,286.49C346.586,286.07 348.675,285.206 348.878,285.139C353.696,283.569 358.029,281.473 362.348,278.822C369.176,274.63 380.062,269.547 387.244,262.71C393.56,256.698 397.324,249.484 396.069,240.842C395.131,234.383 390.756,229.45 384.709,225.95C377.999,222.068 369.108,220.112 363.971,219.115C356.779,217.719 346.492,216.041 337.1,212.742C329.532,210.084 322.321,206.537 319.369,200.323C318.098,197.647 318.482,194.474 319.482,191.056C320.841,186.413 323.506,181.456 326.795,176.485C337.561,160.214 355,144.029 362.022,137.896C366.305,134.157 368.282,132.433 373.6,132.433C378.56,132.433 382.587,128.882 382.587,124.507C382.587,120.133 378.56,116.581 373.6,116.581C362.758,116.581 358.107,119.007 349.377,126.631C340.432,134.443 316.166,157.302 305.874,177.699C300.501,188.349 299.032,198.534 302.793,206.45C306.688,214.649 314.475,220.646 323.918,224.879C335.849,230.227 350.447,232.722 360.109,234.597C363.235,235.204 368.312,236.178 372.746,238.145C375.222,239.243 377.888,240.421 378.241,242.856C378.952,247.747 375.257,251.271 371.163,254.377C364.979,259.068 357.212,262.66 352.08,265.811C349.05,267.671 346.027,269.168 342.647,270.27C342.192,270.418 338.147,271.941 336.161,272.929C334.571,273.719 333.533,274.571 333.049,275.05C330.967,277.111 330.674,279.192 330.715,280.626C330.787,283.113 331.887,285.35 334.674,287.023C338.101,289.081 342.573,288.763 345.577,286.49ZM347.859,277.095C347.25,275.912 346.283,274.817 344.787,273.918C346.165,274.746 347.2,275.852 347.859,277.095Z" style="fill:rgb(187,187,187);fill-opacity:0.79;"/>
    </g>
    <g transform="matrix(0.528571,0,0,0.599274,-39.7826,-47.3603)">
        <path d="M345.577,286.49C346.586,286.07 348.675,285.206 348.878,285.139C353.696,283.569 358.029,281.473 362.348,278.822C369.176,274.63 380.062,269.547 387.244,262.71C393.56,256.698 397.324,249.484 396.069,240.842C395.131,234.383 390.756,229.45 384.709,225.95C377.999,222.068 369.108,220.112 363.971,219.115C356.779,217.719 346.492,216.041 337.1,212.742C329.532,210.084 322.321,206.537 319.369,200.323C318.098,197.647 318.482,194.474 319.482,191.056C320.841,186.413 323.506,181.456 326.795,176.485C337.561,160.214 355,144.029 362.022,137.896C366.305,134.157 368.282,132.433 373.6,132.433C378.56,132.433 382.587,128.882 382.587,124.507C382.587,120.133 378.56,116.581 373.6,116.581C362.758,116.581 358.107,119.007 349.377,126.631C340.432,134.443 316.166,157.302 305.874,177.699C300.501,188.349 299.032,198.534 302.793,206.45C306.688,214.649 314.475,220.646 323.918,224.879C335.849,230.227 350.447,232.722 360.109,234.597C363.235,235.204 368.312,236.178 372.746,238.145C375.222,239.243 377.888,240.421 378.241,242.856C378.952,247.747 375.257,251.271 371.163,254.377C364.979,259.068 357.212,262.66 352.08,265.811C349.05,267.671 346.027,269.168 342.647,270.27C342.192,270.418 338.147,271.941 336.161,272.929C334.571,273.719 333.533,274.571 333.049,275.05C330.967,277.111 330.674,279.192 330.715,280.626C330.787,283.113 331.887,285.35 334.674,287.023C338.101,289.081 342.573,288.763 345.577,286.49ZM347.859,277.095C347.25,275.912 346.283,274.817 344.787,273.918C346.165,274.746 347.2,275.852 347.859,277.095Z" style="fill:rgb(187,187,187);fill-opacity:0.79;"/>
    </g>
</svg>
