<?xml version="1.0" encoding="UTF-8" standalone="no"?>
<!DOCTYPE svg PUBLIC "-//W3C//DTD SVG 1.1//EN" "http://www.w3.org/Graphics/SVG/1.1/DTD/svg11.dtd">
<svg width="100%" height="100%" viewBox="0 0 200 200" version="1.1" xmlns="http://www.w3.org/2000/svg" xmlns:xlink="http://www.w3.org/1999/xlink" xml:space="preserve" xmlns:serif="http://www.serif.com/" style="fill-rule:evenodd;clip-rule:evenodd;stroke-linecap:round;stroke-linejoin:round;stroke-miterlimit:1.5;">
    <g transform="matrix(0.69,0,0,0.69,20.65,35.14)">
        <circle cx="115" cy="94" r="50" style="fill:rgb(235,235,235);"/>
    </g>
    <g transform="matrix(1,0,0,0.853659,0,2.34146)">
        <path d="M100,16L100,57" style="fill:none;stroke:rgb(235,235,235);stroke-width:11.2px;"/>
    </g>
    <g transform="matrix(-1,1.22465e-16,-1.04543e-16,-0.853659,200,197.644)">
        <path d="M100,16L100,57" style="fill:none;stroke:rgb(235,235,235);stroke-width:11.2px;"/>
    </g>
    <g transform="matrix(-1.83697e-16,-1,0.853659,-1.56815e-16,2.35632,200)">
        <path d="M100,16L100,57" style="fill:none;stroke:rgb(235,235,235);stroke-width:11.2px;"/>
    </g>
    <g transform="matrix(6.12323e-17,1,-0.853659,5.22715e-17,197.644,3.55271e-15)">
        <path d="M100,16L100,57" style="fill:none;stroke:rgb(235,235,235);stroke-width:11.2px;"/>
    </g>
    <g transform="matrix(0.707495,0.706718,-0.603296,0.603959,98.1384,-39.5975)">
        <path d="M100,16L100,57" style="fill:none;stroke:rgb(235,235,235);stroke-width:11.2px;"/>
    </g>
    <g transform="matrix(-0.707495,-0.706718,0.603296,-0.603959,101.862,239.583)">
        <path d="M100,16L100,57" style="fill:none;stroke:rgb(235,235,235);stroke-width:11.2px;"/>
    </g>
    <g transform="matrix(0.706718,-0.707495,0.603959,0.603296,-39.5827,101.862)">
        <path d="M100,16L100,57" style="fill:none;stroke:rgb(235,235,235);stroke-width:11.2px;"/>
    </g>
    <g transform="matrix(-0.706718,0.707495,-0.603959,-0.603296,239.583,98.1384)">
        <path d="M100,16L100,57" style="fill:none;stroke:rgb(235,235,235);stroke-width:11.2px;"/>
    </g>
</svg>
