<?xml version="1.0" encoding="UTF-8" standalone="no"?>
<!DOCTYPE svg PUBLIC "-//W3C//DTD SVG 1.1//EN" "http://www.w3.org/Graphics/SVG/1.1/DTD/svg11.dtd">
<svg width="100%" height="100%" viewBox="0 0 100 100" version="1.1" xmlns="http://www.w3.org/2000/svg" xmlns:xlink="http://www.w3.org/1999/xlink" xml:space="preserve" xmlns:serif="http://www.serif.com/" style="fill-rule:evenodd;clip-rule:evenodd;stroke-linejoin:round;stroke-miterlimit:2;">
    <g transform="matrix(1,0,0,1,0,4.77458)">
        <path d="M50,0L61.089,34.738L97.553,34.549L67.942,55.83L79.389,90.451L50,68.865L20.611,90.451L32.058,55.83L2.447,34.549L38.911,34.738L50,0Z" style="fill:rgb(255,244,0);fill-opacity:0;"/>
        <path d="M50,0L61.089,34.738L97.553,34.549L67.942,55.83L79.389,90.451L50,68.865L20.611,90.451L32.058,55.83L2.447,34.549L38.911,34.738L50,0ZM50,13.702L57.119,36.005C57.673,37.739 59.289,38.914 61.11,38.904L84.522,38.783C84.522,38.783 65.51,52.446 65.51,52.446C64.032,53.509 63.414,55.409 63.986,57.138L71.336,79.366C71.336,79.366 52.466,65.507 52.466,65.507C50.999,64.429 49.001,64.429 47.534,65.507L28.664,79.366C28.664,79.366 36.014,57.138 36.014,57.138C36.586,55.409 35.968,53.509 34.49,52.446L15.478,38.783C15.478,38.783 38.89,38.904 38.89,38.904C40.711,38.914 42.327,37.739 42.881,36.005L50,13.702Z" style="fill:rgb(224,214,0);"/>
    </g>
    <g transform="matrix(1,0,0,1,0,4.77458)">
        <path d="M50,0L50,68.865L20.611,90.451L32.058,55.83L2.447,34.549L38.911,34.738L50,0Z" style="fill:rgb(224,214,0);"/>
        <path d="M50,0L50,68.865L20.611,90.451L32.058,55.83L2.447,34.549L38.911,34.738L50,0ZM45.833,26.755L45.833,66.756C45.833,66.756 28.664,79.366 28.664,79.366C28.664,79.366 36.014,57.138 36.014,57.138C36.586,55.409 35.968,53.509 34.49,52.446L15.478,38.783C15.478,38.783 38.89,38.904 38.89,38.904C40.711,38.914 42.327,37.739 42.881,36.005L45.833,26.755Z" style="fill:rgb(224,214,0);"/>
    </g>
</svg>
