<?xml version="1.0" encoding="UTF-8" standalone="no"?>
<!DOCTYPE svg PUBLIC "-//W3C//DTD SVG 1.1//EN" "http://www.w3.org/Graphics/SVG/1.1/DTD/svg11.dtd">
<svg width="100%" height="100%" viewBox="0 0 1024 1024" version="1.1" xmlns="http://www.w3.org/2000/svg" xmlns:xlink="http://www.w3.org/1999/xlink" xml:space="preserve" xmlns:serif="http://www.serif.com/" style="fill-rule:evenodd;clip-rule:evenodd;stroke-linejoin:round;stroke-miterlimit:2;">
    <g transform="matrix(0.248047,0.248352,-0.707541,0.706672,531.515,216.195)">
        <path d="M708.499,297.979C708.499,268.651 640.665,244.841 557.111,244.841C473.558,244.841 405.724,268.651 405.724,297.979L405.724,721.378C405.724,750.706 473.558,774.516 557.111,774.516C640.665,774.516 708.499,750.706 708.499,721.378L708.499,297.979Z"/>
    </g>
    <g transform="matrix(0.805884,0,0,0.805884,68.9941,129.168)">
        <path d="M730.879,-85.487C938.096,-85.487 1106.33,82.747 1106.33,289.965C1106.33,497.183 938.096,665.417 730.879,665.417C523.661,665.417 355.427,497.183 355.427,289.965C355.427,82.747 523.661,-85.487 730.879,-85.487ZM730.879,23.09C878.171,23.09 997.754,142.672 997.754,289.965C997.754,437.258 878.171,556.84 730.879,556.84C583.586,556.84 464.003,437.258 464.003,289.965C464.003,142.672 583.586,23.09 730.879,23.09Z"/>
    </g>
    <path d="M854.885,362.846C854.885,254.108 766.735,165.958 657.997,165.958L657.997,215.18C739.551,215.18 805.663,281.293 805.663,362.846L854.885,362.846Z" style="fill:white;"/>
    <path d="M854.885,362.846C854.885,254.108 766.735,165.958 657.997,165.958L657.997,215.18C739.551,215.18 805.663,281.293 805.663,362.846L854.885,362.846Z" style="fill:rgb(230,230,230);"/>
</svg>
